<?xml version="1.0" encoding="utf-8"?>
<!-- Generator: Adobe Illustrator 24.0.1, SVG Export Plug-In . SVG Version: 6.00 Build 0)  -->
<svg version="1.1" id="Layer_1" xmlns="http://www.w3.org/2000/svg" xmlns:xlink="http://www.w3.org/1999/xlink" x="0px" y="0px"
	 viewBox="0 0 220 40" style="enable-background:new 0 0 220 40;" xml:space="preserve">
<style type="text/css">
	.st0{fill:#C7C7C7;}
</style>
<g>
	<g>
		<path class="st0" d="M46.79,27.74v-3.38l-1.72-1.79l-3.79,5.17H39.3l4.68-6.26l-4.42-4.96h1.96l5.28,5.78v-5.77h1.77v11.2H46.79z"
			/>
	</g>
	<g>
		<path class="st0" d="M53.73,26.13c-0.65,0-1.24-0.12-1.76-0.35c-0.52-0.23-0.97-0.54-1.33-0.93c-0.37-0.39-0.65-0.85-0.85-1.37
			c-0.2-0.52-0.3-1.07-0.3-1.64c0-0.57,0.1-1.11,0.3-1.64c0.2-0.52,0.49-0.98,0.86-1.37c0.37-0.39,0.82-0.7,1.34-0.93
			c0.52-0.23,1.1-0.35,1.75-0.35c0.64,0,1.22,0.12,1.75,0.35c0.52,0.23,0.97,0.54,1.34,0.93c0.37,0.39,0.66,0.85,0.86,1.37
			c0.2,0.52,0.3,1.07,0.3,1.64c0,0.57-0.1,1.11-0.3,1.64c-0.2,0.52-0.49,0.98-0.86,1.37c-0.37,0.39-0.82,0.7-1.34,0.93
			C54.95,26.01,54.37,26.13,53.73,26.13z M51.26,21.86c0,0.4,0.06,0.77,0.19,1.11c0.13,0.34,0.3,0.63,0.52,0.88
			c0.22,0.25,0.48,0.44,0.78,0.58c0.3,0.14,0.62,0.21,0.97,0.21c0.35,0,0.67-0.07,0.97-0.21c0.3-0.14,0.56-0.34,0.78-0.59
			c0.22-0.25,0.39-0.55,0.52-0.88c0.13-0.34,0.19-0.71,0.19-1.11c0-0.39-0.06-0.76-0.19-1.1c-0.13-0.34-0.3-0.64-0.52-0.89
			c-0.22-0.25-0.48-0.45-0.78-0.59c-0.3-0.14-0.62-0.21-0.97-0.21c-0.34,0-0.66,0.07-0.96,0.22c-0.3,0.15-0.56,0.35-0.78,0.6
			c-0.22,0.25-0.4,0.55-0.53,0.89C51.33,21.11,51.26,21.47,51.26,21.86z"/>
		<path class="st0" d="M66.78,25.97h-1.74v-4.63c0-0.78-0.12-1.35-0.37-1.7c-0.25-0.35-0.61-0.53-1.1-0.53
			c-0.25,0-0.51,0.05-0.76,0.14c-0.25,0.09-0.49,0.23-0.71,0.4c-0.22,0.17-0.42,0.38-0.59,0.62c-0.17,0.24-0.31,0.5-0.4,0.78v4.91
			h-1.74v-8.26h1.58v1.66c0.32-0.56,0.77-1,1.37-1.32c0.6-0.32,1.26-0.48,1.99-0.48c0.5,0,0.9,0.09,1.22,0.27
			c0.32,0.18,0.57,0.42,0.75,0.73c0.18,0.31,0.31,0.67,0.39,1.07c0.07,0.41,0.11,0.83,0.11,1.29V25.97z"/>
		<path class="st0" d="M73.16,25.54c-0.22,0.11-0.53,0.22-0.92,0.36c-0.39,0.13-0.81,0.2-1.25,0.2c-0.27,0-0.53-0.04-0.77-0.11
			c-0.24-0.07-0.46-0.18-0.64-0.33c-0.18-0.15-0.33-0.34-0.43-0.58c-0.11-0.24-0.16-0.52-0.16-0.86v-5.17H67.9v-1.34h1.09v-2.72
			h1.74v2.72h1.8v1.34h-1.8v4.61c0.02,0.29,0.11,0.51,0.28,0.64c0.16,0.13,0.37,0.2,0.61,0.2c0.24,0,0.47-0.04,0.7-0.13
			c0.22-0.08,0.38-0.15,0.49-0.21L73.16,25.54z"/>
		<path class="st0" d="M78.85,19.21c-0.67,0.02-1.27,0.18-1.79,0.47c-0.52,0.29-0.89,0.7-1.11,1.24v5.06h-1.74v-8.26h1.61v1.85
			c0.28-0.57,0.66-1.02,1.11-1.37c0.46-0.34,0.95-0.53,1.48-0.56c0.11,0,0.19,0,0.26,0s0.13,0.01,0.18,0.02V19.21z"/>
		<path class="st0" d="M83.26,26.13c-0.65,0-1.24-0.12-1.76-0.35c-0.52-0.23-0.97-0.54-1.33-0.93c-0.37-0.39-0.65-0.85-0.85-1.37
			c-0.2-0.52-0.3-1.07-0.3-1.64c0-0.57,0.1-1.11,0.3-1.64c0.2-0.52,0.49-0.98,0.86-1.37c0.37-0.39,0.82-0.7,1.34-0.93
			c0.52-0.23,1.1-0.35,1.75-0.35c0.64,0,1.22,0.12,1.75,0.35c0.52,0.23,0.97,0.54,1.34,0.93c0.37,0.39,0.66,0.85,0.86,1.37
			c0.2,0.52,0.3,1.07,0.3,1.64c0,0.57-0.1,1.11-0.3,1.64c-0.2,0.52-0.49,0.98-0.86,1.37c-0.37,0.39-0.82,0.7-1.34,0.93
			C84.48,26.01,83.9,26.13,83.26,26.13z M80.79,21.86c0,0.4,0.06,0.77,0.19,1.11c0.13,0.34,0.3,0.63,0.52,0.88
			c0.22,0.25,0.48,0.44,0.78,0.58c0.3,0.14,0.62,0.21,0.97,0.21c0.35,0,0.67-0.07,0.97-0.21c0.3-0.14,0.56-0.34,0.78-0.59
			c0.22-0.25,0.39-0.55,0.52-0.88c0.13-0.34,0.19-0.71,0.19-1.11c0-0.39-0.06-0.76-0.19-1.1c-0.13-0.34-0.3-0.64-0.52-0.89
			c-0.22-0.25-0.48-0.45-0.78-0.59c-0.3-0.14-0.62-0.21-0.97-0.21c-0.34,0-0.66,0.07-0.96,0.22c-0.3,0.15-0.56,0.35-0.78,0.6
			c-0.22,0.25-0.4,0.55-0.53,0.89C80.86,21.11,80.79,21.47,80.79,21.86z"/>
		<path class="st0" d="M88.92,14.44h1.74v9.15c0,0.31,0.08,0.55,0.24,0.72c0.16,0.17,0.38,0.26,0.66,0.26c0.12,0,0.25-0.02,0.4-0.06
			c0.15-0.04,0.3-0.09,0.43-0.14l0.25,1.36c-0.25,0.12-0.55,0.21-0.9,0.28c-0.35,0.07-0.66,0.1-0.93,0.1c-0.6,0-1.07-0.16-1.4-0.49
			c-0.33-0.33-0.5-0.79-0.5-1.39V14.44z"/>
		<path class="st0" d="M97.65,27.98v-2.51H92.8v-1.55l5.4-6.97h1.18v6.94h1.39v1.58h-1.39v2.51H97.65z M94.57,23.89h3.27V19.6
			L94.57,23.89z"/>
	</g>
	<g>
		<path class="st0" d="M14.14,25.97H12.4v-4.63c0-0.76-0.13-1.32-0.4-1.68c-0.27-0.36-0.66-0.55-1.16-0.55
			c-0.24,0-0.48,0.05-0.73,0.14c-0.24,0.09-0.47,0.23-0.69,0.4c-0.22,0.17-0.41,0.38-0.58,0.62c-0.17,0.24-0.3,0.5-0.38,0.78v4.91
			H6.73V14.44h1.74v4.93c0.32-0.57,0.74-1.01,1.29-1.33c0.54-0.32,1.13-0.47,1.78-0.47c0.52,0,0.94,0.09,1.27,0.28
			c0.33,0.18,0.6,0.43,0.8,0.73c0.2,0.31,0.34,0.66,0.42,1.07c0.08,0.41,0.12,0.83,0.12,1.29V25.97z"/>
		<path class="st0" d="M18.2,26.13c-0.4,0-0.77-0.07-1.11-0.2c-0.34-0.13-0.64-0.31-0.88-0.55c-0.25-0.23-0.44-0.51-0.58-0.82
			c-0.14-0.32-0.21-0.66-0.21-1.03c0-0.39,0.08-0.74,0.25-1.06c0.17-0.32,0.41-0.59,0.72-0.82c0.31-0.23,0.68-0.41,1.11-0.54
			c0.43-0.13,0.9-0.19,1.41-0.19c0.39,0,0.77,0.03,1.15,0.1c0.38,0.07,0.72,0.16,1.03,0.28v-0.57c0-0.61-0.17-1.09-0.52-1.43
			c-0.35-0.34-0.85-0.51-1.5-0.51c-0.44,0-0.88,0.08-1.3,0.24c-0.43,0.16-0.87,0.4-1.32,0.7l-0.54-1.11
			c1.06-0.72,2.17-1.07,3.32-1.07c1.14,0,2.02,0.29,2.65,0.87c0.63,0.58,0.95,1.41,0.95,2.5v2.99c0,0.37,0.15,0.56,0.46,0.57v1.49
			c-0.17,0.03-0.31,0.05-0.43,0.06c-0.12,0.01-0.24,0.02-0.36,0.02c-0.34,0-0.6-0.08-0.78-0.25c-0.18-0.17-0.3-0.38-0.34-0.65
			l-0.05-0.52c-0.37,0.48-0.82,0.86-1.37,1.11C19.41,26,18.82,26.13,18.2,26.13z M18.68,24.85c0.42,0,0.82-0.08,1.19-0.23
			c0.37-0.15,0.67-0.37,0.88-0.64c0.22-0.19,0.33-0.39,0.33-0.6v-1.09c-0.3-0.12-0.61-0.21-0.94-0.27
			c-0.33-0.06-0.66-0.09-0.97-0.09c-0.62,0-1.13,0.13-1.52,0.4c-0.39,0.27-0.59,0.62-0.59,1.07c0,0.41,0.15,0.76,0.46,1.03
			C17.81,24.71,18.2,24.85,18.68,24.85z"/>
		<path class="st0" d="M27.3,26.13c-0.86,0-1.52-0.28-1.96-0.85c-0.44-0.56-0.66-1.4-0.66-2.52v-5.06h1.74v4.71
			c0,1.49,0.53,2.23,1.58,2.23c0.5,0,0.96-0.15,1.41-0.46c0.44-0.31,0.78-0.75,1.03-1.33v-5.15h1.74v6.21c0,0.2,0.03,0.34,0.1,0.43
			c0.07,0.08,0.19,0.13,0.37,0.14v1.49c-0.18,0.03-0.33,0.05-0.44,0.06c-0.12,0.01-0.23,0.02-0.33,0.02c-0.32,0-0.58-0.09-0.81-0.26
			c-0.22-0.17-0.34-0.4-0.35-0.67l-0.03-0.82c-0.37,0.6-0.85,1.06-1.44,1.37C28.66,25.97,28.01,26.13,27.3,26.13z"/>
		<path class="st0" d="M37.23,26.13c-0.66,0-1.32-0.11-1.98-0.32c-0.66-0.22-1.22-0.52-1.7-0.92l0.7-1.11
			c0.5,0.36,0.98,0.63,1.47,0.81c0.48,0.18,0.98,0.28,1.49,0.28c0.52,0,0.92-0.1,1.22-0.3c0.3-0.2,0.45-0.48,0.45-0.85
			c0-0.35-0.17-0.6-0.51-0.76c-0.34-0.16-0.86-0.33-1.58-0.52c-0.52-0.14-0.96-0.27-1.33-0.39c-0.37-0.13-0.67-0.27-0.9-0.44
			c-0.23-0.17-0.4-0.36-0.51-0.58c-0.11-0.22-0.16-0.49-0.16-0.81c0-0.42,0.08-0.8,0.24-1.12c0.16-0.33,0.39-0.6,0.68-0.83
			c0.29-0.23,0.63-0.4,1.02-0.51c0.39-0.12,0.81-0.17,1.26-0.17c0.62,0,1.2,0.09,1.74,0.28c0.54,0.19,1.02,0.46,1.44,0.82
			l-0.74,1.04c-0.77-0.61-1.59-0.92-2.45-0.92c-0.44,0-0.81,0.09-1.11,0.28c-0.3,0.18-0.45,0.48-0.45,0.88
			c0,0.17,0.03,0.31,0.09,0.43c0.06,0.12,0.17,0.22,0.31,0.3c0.14,0.08,0.33,0.16,0.55,0.23c0.23,0.07,0.51,0.15,0.85,0.23
			c0.56,0.14,1.04,0.27,1.45,0.41c0.41,0.14,0.74,0.3,1,0.48c0.26,0.18,0.46,0.4,0.58,0.65c0.13,0.25,0.19,0.55,0.19,0.89
			c0,0.79-0.3,1.41-0.89,1.87C39.06,25.9,38.25,26.13,37.23,26.13z"/>
	</g>
</g>
</svg>
